<?xml version="1.0" standalone="yes"?>
<svg xmlns="http://www.w3.org/2000/svg" width="651" height="411">
<path style="fill:#000000; stroke:none;" d="M67 77L67 266L98 266L98 200C117.878 200 138.322 201.722 156 190.768C190.214 169.567 195.284 117.916 163.985 91.6158C137.986 69.7687 98.6177 77 67 77z"/>
<path style="fill:#ffffff; stroke:none;" d="M85 133C105.66 130.389 129.34 130.389 150 133C148.326 123.727 140.509 116.049 132 112.465C128.734 111.089 123.101 110.973 120.604 108.4C115.228 102.863 130.514 92.4988 118.946 88.6474C115.25 87.4169 111.613 90.2887 111.337 94.0116C110.974 98.9101 118.126 102.743 114.968 107.683C112.805 111.065 105.506 111.286 102 112.901C94.0296 116.573 86.5923 124.203 85 133z"/>
<path style="fill:#000000; stroke:none;" d="M119 89L120 90L119 89z"/>
<path style="fill:#ffffff; stroke:none;" d="M86.0548 136.742C78.3831 139.911 80.8732 150.588 88.0039 152.566C100.846 156.129 118.666 153 132 153C137.076 153 144.335 154.285 148.956 151.821C155.22 148.48 155.248 138.55 147.957 136.434C135.287 132.756 117.202 136 104 136C98.6371 136 91.0891 134.663 86.0548 136.742z"/>
<path style="fill:#000000; stroke:none;" d="M89.0154 137.573C82.6107 139.469 81.2666 147.794 88.0193 150.397C99.8416 154.953 120.315 151 133 151C137.651 151 144.655 152.267 148.772 149.682C155.446 145.491 149.836 138.001 143.999 137.189C131.279 135.419 116.776 136.683 104 137.486C99.0344 137.798 93.9294 136.117 89.0154 137.573z"/>
<path style="fill:#ffffff; stroke:none;" d="M96.314 141.086C92.2652 143.367 95.6208 149.413 99.6821 146.928C103.382 144.665 100.106 138.949 96.314 141.086M136.13 140.89C131.953 142.08 133.728 148.359 137.87 147.248C142.046 146.129 140.354 139.688 136.13 140.89M85 155C88.6557 173.904 109.442 169 124 169C129.232 169 137.208 170.471 141.96 167.972C146.306 165.687 148.687 160.463 150 156C129.555 156 104.891 159.736 85 155z"/>
<path style="fill:#000000; stroke:none;" d="M227 220L226 214C221.391 214.582 216.496 215.82 212.001 213.991C201.924 209.89 199.785 195.36 208.105 188.419C213.403 183.999 219.758 185.211 226 186C228.58 173.756 207.522 178.888 202.043 183.394C191.643 191.945 191.615 210.543 203.015 218.297C210.128 223.135 219.215 222.014 227 220M263 178.61C237.475 180.249 238.923 223.405 265 221.787C291.467 220.145 290.014 176.874 263 178.61M306 179L303 221L310 221L312 188L313 188C313.37 196.488 316.756 204.959 319.344 213C320.206 215.678 321.241 220.977 325.053 220.534C328.633 220.118 329.704 215.825 330.666 213C333.318 205.213 336.796 197.15 338 189L339 189C339.001 198.641 335.889 220.856 348 221L346 179C330.891 179.002 328.677 196.066 326 209C320.59 196.78 322.05 179.002 306 179M369 221L377 221L377 205C380.635 205 384.485 205.3 388 204.196C396.213 201.617 400.58 190.243 394.427 183.343C390.803 179.279 385.049 179.025 380 179.001C377.203 178.987 372.019 178.09 370.028 180.603C367.954 183.221 369 188.878 369 192L369 221M414 221C425.129 220.961 422.123 209.268 432.001 209.024C442.565 208.763 439.825 220.96 451 221L438 179L428.513 180.028L423.691 191L414 221M470 179L470 221L477 221L477 189L478 189C481.318 200.516 490.955 220.954 504 221L504 179L497 179L497 209C490.248 197.432 485.16 179.012 470 179M519 179C526.858 193.935 533 203.89 533 221L540 221L540.969 204L554 179C543.589 179.037 540.218 187.66 538 197L536 197C533.229 186.867 530.273 179.009 519 179z"/>
<path style="fill:#ffffff; stroke:none;" d="M260.04 185.742C246.591 191.146 252.645 221.644 268.96 214.333C282.149 208.422 276.432 179.157 260.04 185.742M377 185L377 199C392.47 198.956 392.727 185.045 377 185M432 186L427 203L438 203L432 186z"/>
<path style="fill:#000000; stroke:none;" d="M104 206C104 212.001 103.022 218.114 107.148 223C111.775 228.479 120.961 240.555 129 239.808C134.002 239.343 137.704 234.294 141 231C148.271 223.732 163.361 209.535 145 203.353C140.886 201.967 134.247 204.963 130 205.572C121.529 206.785 112.546 206 104 206M154 224.346C151.236 225.035 148.924 228.091 147 230.001C134.905 242.008 140.062 245.063 151 256C154.123 259.123 158.932 266.071 164 265.338C167.143 264.883 169.823 262.031 172 259.96C184.297 248.262 176.024 243.024 166 233C163.324 230.324 158.416 223.245 154 224.346M271 257C272.182 262.515 282.876 260.63 283.361 255C283.883 248.937 275.444 249.55 275.444 245C275.444 241.611 280.075 242.676 282 243C280.245 238.027 272.626 238.757 271.492 244.104C270.255 249.938 287.049 258.642 271 257M349.004 239.627C337.08 241.571 338.978 261.973 351.999 259.768C363.968 257.74 361.175 237.641 349.004 239.627M307 240L307 260L319 260L319 257L310 257L310 240L307 240M399 249L393 249L396 252C393.919 265.007 377.496 246.304 392.011 242.974C393.969 242.524 396.028 242.841 398 243C396.082 234.048 380.925 243.063 382.083 252C382.859 257.981 392.205 263.388 397.667 259.278C400.097 257.449 399 251.683 399 249M422 260L430.064 254.466L439 260C438.427 256.121 435.546 239.785 430.17 240.466C424.978 241.124 422.865 255.819 422 260M462 240L462 260L465 260L465 245L466 245C468.758 250.908 471.774 259.426 479 260L479 240L475 240L476 255C471.988 249.381 469.73 240.611 462 240z"/>
<path style="fill:#ffffff; stroke:none;" d="M348.108 243.072C340.928 246.629 345.164 261.059 352.772 256.802C358.736 253.464 355.726 239.298 348.108 243.072M430 243L428 252L433 252L430 243z"/>
<path style="fill:#000000; stroke:none;" d="M170 266L170 267L179.687 278L185 301C191.99 295.533 184.971 291.076 186.409 284C188.912 271.686 202.219 269.822 211 276L212 276L216 272C208.469 262.978 200.328 269.167 192 265.096C188.281 263.279 184.697 256.175 180 257.346C176.182 258.297 172.674 263.326 170 266z"/>
</svg>
